<?xml version="1.0" standalone="no"?>
<!DOCTYPE svg PUBLIC "-//W3C//DTD SVG 20010904//EN"
 "http://www.w3.org/TR/2001/REC-SVG-20010904/DTD/svg10.dtd">
<svg version="1.0" xmlns="http://www.w3.org/2000/svg"
 width="512.000000pt" height="512.000000pt" viewBox="0 0 512.000000 512.000000"
 preserveAspectRatio="xMidYMid meet">
<metadata>
Created by potrace 1.14, written by Peter Selinger 2001-2017
</metadata>
<g transform="translate(0.000000,512.000000) scale(0.100000,-0.100000)"
fill="#000000" stroke="none">
<path d="M5 4515 c3 -11 16 -69 30 -130 14 -60 36 -157 49 -215 14 -58 39
-166 56 -240 18 -74 33 -143 36 -154 2 -10 17 -80 35 -155 17 -75 32 -143 34
-151 16 -71 250 -1083 265 -1145 18 -76 38 -162 45 -195 2 -8 33 -145 70 -305
37 -159 68 -296 70 -305 2 -9 10 -45 19 -81 15 -62 196 -848 196 -852 0 -2
1021 0 1031 2 5 1 22 51 34 106 2 6 35 132 75 280 40 149 78 293 85 320 7 28
25 95 40 150 15 55 42 156 60 225 37 143 179 678 201 760 44 161 97 360 106
398 5 24 13 40 17 35 4 -4 126 -453 270 -998 145 -545 271 -1019 281 -1055 10
-36 27 -101 39 -145 l22 -80 510 0 c280 0 509 2 509 3 0 6 53 230 115 492 31
129 59 246 61 259 3 14 19 81 36 150 16 69 31 133 33 141 2 8 15 67 30 130 15
63 28 122 30 130 2 8 11 44 20 80 9 36 18 75 21 88 2 12 14 62 25 110 12 48
22 94 24 102 2 8 8 35 15 60 7 25 14 56 17 70 2 14 10 50 18 80 8 30 16 66 18
80 3 14 10 45 17 70 7 25 14 52 15 60 3 13 12 53 31 135 3 11 7 31 10 45 3 14
17 70 31 125 13 55 27 110 29 123 3 12 14 62 25 110 12 48 22 94 24 102 2 8
17 73 34 144 17 70 33 138 36 150 2 11 11 50 20 86 9 36 25 101 35 145 9 44
48 206 84 360 37 154 68 289 69 299 2 19 -9 20 -516 20 -285 1 -523 -2 -529
-5 -7 -5 -108 -462 -153 -699 -3 -14 -7 -34 -9 -45 -8 -34 -107 -509 -112
-535 -3 -14 -27 -131 -55 -260 -27 -129 -51 -244 -53 -255 -44 -209 -56 -257
-56 -210 0 10 -16 82 -36 159 -20 78 -37 148 -39 156 -2 8 -20 80 -40 160 -20
80 -38 152 -40 160 -2 8 -40 159 -85 335 -45 176 -83 327 -85 335 -12 58 -167
669 -174 685 -8 19 -20 19 -555 20 -358 0 -550 -3 -556 -10 -4 -5 -35 -113
-69 -240 -34 -126 -73 -272 -87 -322 -14 -51 -27 -101 -29 -110 -5 -23 -76
-289 -121 -454 -19 -69 -36 -134 -39 -145 -2 -10 -40 -152 -83 -314 -44 -162
-85 -319 -93 -347 -7 -29 -14 -51 -17 -49 -2 3 -19 80 -38 173 -20 92 -37 177
-40 188 -15 73 -25 125 -30 151 -3 16 -7 37 -10 46 -3 9 -6 25 -8 35 -2 10
-12 54 -21 98 -9 44 -19 91 -21 105 -4 24 -25 122 -74 355 -12 55 -25 120 -30
145 -5 25 -12 56 -14 70 -3 14 -19 90 -36 170 -17 80 -45 215 -63 300 l-32
154 -532 1 c-528 0 -532 0 -528 -20z"/>
</g>
</svg>
